<?xml version="1.0" standalone="no"?>
<!DOCTYPE svg PUBLIC "-//W3C//DTD SVG 20010904//EN"
 "http://www.w3.org/TR/2001/REC-SVG-20010904/DTD/svg10.dtd">
<svg version="1.0" xmlns="http://www.w3.org/2000/svg"
 width="500.000000pt" height="260.000000pt" viewBox="0 0 500.000000 260.000000"
 preserveAspectRatio="xMidYMid meet">

<g transform="translate(0.000000,260.000000) scale(0.100000,-0.100000)"
fill="#000000" stroke="none">
<path d="M0 1300 l0 -1300 2500 0 2500 0 0 1300 0 1300 -2500 0 -2500 0 0
-1300z m2622 703 c28 -25 23 -39 -34 -99 -42 -44 -49 -57 -38 -64 8 -6 20 -10
26 -10 17 0 142 -118 149 -140 10 -30 -12 -60 -43 -60 -20 0 -42 15 -82 55
-62 63 -103 81 -146 65 -16 -6 -64 -46 -107 -88 -147 -144 -145 -167 16 -326
73 -72 79 -76 122 -76 43 0 51 5 115 65 38 36 73 65 77 65 19 0 53 -33 53 -51
0 -27 -111 -136 -162 -159 -55 -25 -111 -25 -168 1 -54 24 -213 177 -242 233
-25 49 -27 130 -3 176 24 49 405 430 429 430 11 0 28 -7 38 -17z m226 -465 c7
-7 12 -21 12 -33 0 -42 -14 -45 -225 -45 -211 0 -225 3 -225 45 0 42 14 45
225 45 143 0 204 -3 213 -12z m-1068 -722 c0 -114 1 -116 59 -125 46 -8 41
-25 -8 -29 -30 -2 -45 2 -60 17 -19 19 -21 33 -21 131 0 91 3 110 15 110 12 0
15 -18 15 -104z m570 70 c0 -27 4 -35 20 -38 12 -2 21 -7 21 -13 0 -5 -9 -11
-21 -13 -17 -3 -20 -11 -20 -63 0 -55 2 -60 27 -70 38 -14 15 -37 -24 -23
l-28 9 -3 123 c-2 104 0 122 13 122 10 0 15 -10 15 -34z m248 17 c2 -9 -9 -13
-38 -13 -112 0 -140 -155 -34 -190 18 -6 37 -9 42 -6 13 8 35 -11 27 -24 -12
-20 -92 -6 -122 21 -94 87 -41 234 81 226 22 -1 41 -8 44 -14z m432 -84 c0
-98 -1 -101 -29 -130 -48 -47 -117 -34 -146 28 -38 79 49 164 126 123 17 -10
19 -7 19 35 0 33 4 45 15 45 12 0 15 -18 15 -101z m-992 15 c12 -8 27 -24 32
-34 10 -18 3 -23 -60 -51 -71 -32 -77 -42 -29 -54 20 -5 31 0 50 19 25 27 49
34 49 15 0 -6 -13 -24 -29 -40 -48 -47 -117 -34 -146 28 -40 84 57 170 133
117z m221 -10 c17 -14 31 -30 31 -35 0 -5 -33 -24 -72 -42 -72 -34 -73 -35
-45 -45 31 -13 71 -2 80 22 7 18 37 22 37 5 0 -6 -13 -24 -29 -40 -48 -47
-117 -34 -146 28 -45 93 65 174 144 107z m520 0 c43 -36 44 -93 2 -135 -48
-47 -117 -34 -146 28 -44 93 65 174 144 107z m440 0 c17 -14 31 -30 31 -35 0
-5 -32 -23 -71 -41 -65 -29 -70 -33 -53 -45 24 -17 64 -9 83 17 16 23 41 26
41 6 0 -21 -58 -66 -85 -66 -40 0 -73 21 -90 57 -45 93 65 174 144 107z"/>
<path d="M2902 804 c-32 -22 -30 -78 3 -100 61 -40 128 43 75 96 -24 24 -48
25 -78 4z"/>
<path d="M1950 802 c-12 -10 -21 -25 -19 -35 4 -15 8 -14 49 4 55 25 58 28 40
39 -23 15 -46 12 -70 -8z"/>
<path d="M2162 804 c-19 -13 -32 -54 -17 -54 11 0 95 45 95 51 0 6 -34 18 -50
19 -3 0 -16 -7 -28 -16z"/>
<path d="M2682 804 c-32 -22 -30 -78 3 -100 61 -40 128 43 75 96 -24 24 -48
25 -78 4z"/>
<path d="M3122 804 c-19 -13 -32 -54 -17 -54 7 0 87 40 95 47 7 6 -22 23 -40
23 -9 0 -26 -7 -38 -16z"/>
</g>
</svg>
